<?xml version="1.0" standalone="no"?>
<!DOCTYPE svg PUBLIC "-//W3C//DTD SVG 20010904//EN"
 "http://www.w3.org/TR/2001/REC-SVG-20010904/DTD/svg10.dtd">
<svg version="1.0" xmlns="http://www.w3.org/2000/svg"
 width="3333.000000pt" height="2000.000000pt" viewBox="0 0 3333.000000 2000.000000"
 preserveAspectRatio="xMidYMid meet">

<g transform="translate(0.000000,2000.000000) scale(0.100000,-0.100000)"
stroke="none">
<path fill="#350030" d="M7897 17146 c-29 -69 -81 -123 -134 -138 -26 -7 -48 -18 -50 -24 -2
-6 25 -25 61 -43 50 -24 71 -42 95 -80 17 -26 31 -53 31 -59 0 -7 9 -12 20
-12 13 0 20 7 20 20 0 55 72 132 140 150 50 14 51 40 2 54 -53 15 -121 82
-134 132 -7 24 -17 44 -23 44 -5 0 -18 -20 -28 -44z"/>
<path fill="#350030" d="M18050 16537 c-61 -71 -451 -497 -456 -497 -2 0 -8 17 -13 38 -22 78
-129 162 -208 162 -59 0 -121 -46 -157 -117 -61 -121 78 -293 236 -293 69 0
103 27 275 217 93 102 191 211 219 241 l51 57 18 -34 c38 -74 25 -229 -28
-344 -22 -48 -31 -56 -105 -95 -86 -46 -100 -62 -54 -62 94 0 225 72 275 152
67 106 73 145 57 394 -10 168 -14 191 -33 212 -11 12 -23 22 -26 22 -3 0 -26
-24 -51 -53z"/>
<path fill="#350030"  d="M0 15235 l0 -145 360 0 360 0 0 45 0 45 355 0 355 0 0 100 0 100
-715 0 -715 0 0 -145z"/>
<path fill="#350030"  d="M0 14865 l0 -155 360 0 360 0 0 45 0 45 355 0 355 0 0 65 0 65 -357
2 -358 3 -3 43 -3 42 -355 0 -354 0 0 -155z"/>
<path fill="#350030" d="M0 14485 l0 -155 360 0 360 0 0 45 0 45 355 0 355 0 0 65 0 65 -357
2 -358 3 -3 43 -3 42 -355 0 -354 0 0 -155z"/>
<path fill="#350030" d="M0 14095 l0 -165 715 0 715 0 0 120 0 120 -357 2 -358 3 -5 40 -5 40
-352 3 -353 2 0 -165z"/>
<path fill="#b96646" d="M19815 14039 c-35 -55 194 -271 465 -439 47 -29 108 -68 136 -85 75
-49 368 -200 497 -257 153 -67 376 -146 467 -163 96 -19 200 -20 200 -2 0 56
-207 256 -373 361 -16 9 -37 25 -47 34 -11 9 -39 27 -63 41 -64 37 -188 111
-215 128 -12 8 -55 31 -95 52 -40 21 -85 45 -102 54 -94 51 -406 184 -505 214
-103 32 -282 73 -319 73 -22 0 -43 -5 -46 -11z"/>
<path fill="#b96646" d="M19715 13860 c-21 -44 -26 -64 -19 -79 15 -34 165 -181 234 -229 36
-26 67 -49 70 -52 9 -11 291 -192 370 -237 77 -45 492 -253 504 -253 3 0 52
-18 108 -41 112 -44 230 -78 352 -103 117 -24 116 -24 154 45 19 33 32 62 30
63 -1 2 -49 10 -105 19 -56 9 -110 21 -120 26 -10 5 -67 25 -128 44 -269 85
-666 282 -964 479 -69 46 -164 111 -182 126 -8 6 -41 33 -74 60 -33 27 -90 81
-127 120 -37 40 -69 72 -71 72 -2 0 -16 -27 -32 -60z"/>
<path fill="#b96646" d="M0 13580 l0 -140 355 0 355 0 0 45 0 45 360 0 360 0 0 95 0 95 -715
0 -715 0 0 -140z"/>
<path fill="#350030" d="M19623 13698 c-6 -7 -34 -58 -63 -113 -29 -55 -79 -150 -111 -211
-33 -62 -59 -121 -59 -132 0 -42 131 -170 306 -297 431 -314 1088 -618 1404
-650 l65 -7 123 231 c67 127 122 235 122 241 0 5 -12 10 -26 10 -15 0 -67 10
-117 21 l-91 22 -15 -21 c-9 -12 -23 -31 -31 -43 -12 -16 -22 -20 -37 -15 -30
9 -35 32 -17 68 18 35 14 41 -41 58 -93 29 -313 126 -537 238 -5 2 -12 -8 -18
-22 -16 -42 -52 -86 -72 -86 -34 0 -39 33 -12 89 13 29 24 54 24 56 0 2 -37
24 -82 50 -142 82 -259 155 -359 226 -53 38 -100 69 -105 69 -5 0 -17 -14 -26
-31 -13 -22 -24 -29 -39 -27 -36 5 -46 33 -26 67 9 16 17 35 17 43 0 7 -37 51
-83 96 -65 64 -86 80 -94 70z"/>
<path fill="#b96646" d="M0 13210 l0 -150 354 0 355 0 3 43 3 42 358 3 357 2 0 60 0 60 -362
2 -363 3 -3 43 -3 42 -350 0 -349 0 0 -150z"/>
<path fill="#b96646" d="M19313 13104 c-13 -20 -23 -41 -23 -48 0 -32 117 -162 220 -243 25
-20 50 -42 55 -48 6 -6 21 -18 35 -25 14 -7 48 -30 75 -51 89 -65 355 -220
535 -310 282 -141 541 -235 740 -270 87 -16 111 -7 136 50 l22 49 -57 7 c-69
9 -228 48 -273 68 -18 8 -67 27 -108 41 -108 38 -198 78 -414 187 -355 178
-683 395 -847 561 -37 37 -69 68 -71 68 -2 -1 -13 -17 -25 -36z"/>
<path fill="#b96646" d="M0 12830 l0 -150 354 0 355 0 3 43 3 42 358 3 357 2 0 60 0 60 -365
0 -365 0 0 45 0 45 -350 0 -350 0 0 -150z"/>
<path fill="#b96646" d="M0 12440 l0 -160 715 0 715 0 0 115 0 115 -365 0 -365 0 0 45 0 45
-350 0 -350 0 0 -160z"/>
<path fill="#350030" d="M0 11925 l0 -145 358 2 357 3 3 43 3 42 355 0 354 0 0 100 0 100
-715 0 -715 0 0 -145z"/>
<path fill="#350030" d="M0 11555 l0 -155 360 0 360 0 0 45 0 45 355 0 355 0 0 65 0 65 -357
2 -358 3 -3 43 -3 42 -355 0 -354 0 0 -155z"/>
<path fill="#350030" d="M0 11175 l0 -155 360 0 360 0 0 45 0 45 355 0 355 0 0 65 0 65 -357
2 -358 3 -3 43 -3 42 -355 0 -354 0 0 -155z"/>
<path fill="#350030" d="M0 10785 l0 -165 715 0 715 0 0 120 0 120 -360 0 -360 0 0 45 0 45
-355 0 -355 0 0 -165z"/>
<path fill="#b96646" d="M19295 10816 c-70 -70 -35 -306 79 -537 l43 -87 -43 -67 c-24 -38
-44 -73 -44 -79 0 -6 -6 -23 -14 -38 -62 -118 -67 -328 -9 -428 34 -59 109
-137 156 -161 88 -46 227 -45 318 2 21 10 41 19 44 19 3 0 18 -26 33 -57 22
-47 27 -73 27 -134 0 -70 -2 -79 -25 -97 -29 -24 -40 -20 -40 15 0 15 -13 38
-35 60 -32 32 -40 35 -77 30 -51 -7 -78 -33 -84 -83 -7 -57 22 -105 74 -124
59 -20 120 -2 188 56 45 38 54 51 60 90 10 70 -1 134 -37 207 l-33 67 43 42
c64 61 95 135 89 212 -9 107 -67 188 -167 234 -68 31 -114 32 -173 3 -46 -22
-68 -22 -68 1 0 6 -16 36 -35 68 -42 69 -42 81 -10 151 39 86 52 183 36 276
-7 43 -21 96 -31 118 -10 22 -30 66 -44 99 -26 59 -83 131 -120 153 -34 20
-75 15 -101 -11z m169 -198 c65 -96 69 -191 12 -312 -20 -43 -24 -47 -38 -33
-8 8 -30 60 -47 113 -37 112 -43 194 -17 249 24 50 48 45 90 -17z m78 -643
l32 -64 -33 -41 c-41 -51 -70 -116 -71 -156 0 -49 51 -135 96 -161 40 -23 74
-30 74 -15 0 5 -12 19 -26 33 -58 54 -69 116 -31 189 37 76 43 72 132 -95 18
-33 44 -80 58 -105 15 -25 27 -50 27 -56 0 -6 -22 -21 -49 -33 -55 -23 -168
-29 -233 -11 -125 35 -190 211 -136 366 20 57 107 214 119 214 5 0 24 -29 41
-65z m239 -135 c69 -19 119 -87 119 -163 0 -40 -39 -121 -60 -125 -10 -2 -30
25 -58 80 -24 46 -57 106 -73 133 -16 28 -29 55 -29 62 0 21 49 27 101 13z"/>
<path fill="#b96646" d="M0 10270 l0 -140 355 0 355 0 0 45 0 45 360 0 360 0 0 95 0 95 -715
0 -715 0 0 -140z"/>
<path fill="#b96646" d="M0 9900 l0 -150 355 0 355 0 0 45 0 45 360 0 360 0 0 60 0 60 -362 2
-363 3 -3 43 -3 42 -350 0 -349 0 0 -150z"/>
<path fill="#b96646" d="M0 9520 l0 -150 354 0 355 0 3 43 3 42 358 3 357 2 0 60 0 60 -362 2
-363 3 -3 43 -3 42 -350 0 -349 0 0 -150z"/>
<path fill="#b96646" d="M32455 9331 c-17 -77 -99 -161 -157 -161 -55 0 -42 -28 24 -49 45
-15 113 -87 123 -130 9 -41 25 -36 42 14 22 63 58 102 115 123 60 22 68 43 22
53 -62 12 -122 74 -139 142 -10 39 -22 42 -30 8z"/>
<path fill="#b96646" d="M0 9130 l0 -160 715 0 715 0 0 115 0 115 -365 0 -365 0 0 45 0 45
-350 0 -350 0 0 -160z"/>
<path fill="#350030" d="M0 8615 l0 -145 358 2 357 3 3 43 3 42 355 0 354 0 0 100 0 100 -715
0 -715 0 0 -145z"/>
<path fill="#350030" d="M0 8245 l0 -155 358 2 357 3 3 43 3 42 355 0 354 0 0 65 0 65 -357 2
-358 3 -3 43 -3 42 -355 0 -354 0 0 -155z"/>
<path fill="#350030" d="M0 7865 l0 -155 360 0 360 0 0 45 0 45 355 0 355 0 0 65 0 65 -357 2
-358 3 -3 43 -3 42 -355 0 -354 0 0 -155z"/>
<path fill="#350030" d="M0 7475 l0 -165 715 0 715 0 0 120 0 120 -357 2 -358 3 -3 43 -3 42
-355 0 -354 0 0 -165z"/>
<path fill="#350030" d="M18863 7268 c-6 -7 -14 -24 -18 -38 -16 -54 -70 -142 -110 -179 -41
-37 -120 -71 -168 -71 -13 0 -18 -6 -15 -22 2 -17 18 -28 68 -47 84 -32 179
-122 206 -196 30 -82 52 -82 77 -2 9 29 25 66 36 83 30 49 105 104 168 124 59
18 75 38 53 65 -6 7 -26 17 -43 21 -46 9 -82 30 -129 72 -42 38 -88 120 -88
158 0 29 -24 49 -37 32z"/>
<path fill="#b96646" d="M13220 5351 c1 -9 17 -85 38 -170 l37 -155 42 -25 c24 -14 52 -38 63
-53 19 -25 52 -139 121 -418 17 -69 41 -161 54 -205 13 -44 38 -141 55 -215
17 -74 36 -146 42 -160 5 -13 27 -94 48 -180 34 -137 79 -303 108 -396 16 -52
101 -183 159 -244 71 -76 190 -158 272 -188 120 -43 317 -75 358 -56 10 4 27
8 38 8 144 9 351 118 467 245 135 149 220 389 203 568 -4 35 -6 64 -6 65 0 2
-6 25 -14 52 -17 56 -20 143 -5 181 8 22 7 27 -14 34 -12 5 -29 16 -37 23 -8
8 -34 24 -59 36 -25 12 -76 42 -115 67 -38 25 -74 45 -78 45 -5 0 -32 15 -60
34 -29 18 -101 62 -162 96 -60 35 -128 74 -150 89 -42 27 -181 101 -189 101
-3 0 -8 -17 -12 -37 -4 -21 -10 -42 -14 -48 -13 -16 -30 -160 -30 -253 0 -99
16 -247 30 -277 12 -27 40 -191 40 -237 0 -71 -34 -124 -102 -159 -92 -47
-194 -2 -237 105 -33 81 -73 267 -61 281 5 6 35 18 65 25 30 7 55 18 55 24 -1
19 -28 128 -34 133 -3 3 -25 0 -48 -7 -100 -28 -94 -30 -112 48 -9 39 -16 77
-16 85 0 9 21 19 60 27 33 7 63 16 65 20 2 4 -3 38 -12 77 l-16 69 -69 -15
c-37 -8 -71 -12 -74 -8 -4 4 -15 39 -24 79 l-17 73 66 22 c36 12 67 22 68 22
1 1 -2 16 -7 34 -5 17 -14 51 -20 74 l-10 41 -56 -19 c-31 -11 -63 -19 -72
-17 -17 3 -57 147 -45 159 5 5 35 15 67 23 32 9 61 17 63 20 2 2 -1 14 -6 27
-5 13 -15 46 -22 72 -7 27 -17 46 -23 44 -24 -9 -126 -30 -129 -26 -1 2 -18
36 -37 74 -60 121 -180 220 -309 255 -24 6 -75 15 -112 19 -59 6 -69 5 -69 -8z"/>
<path fill="#350030" d="M12900 5284 c-207 -65 -215 -68 -214 -84 3 -28 66 -265 73 -273 4 -4
52 2 107 13 54 12 136 28 182 37 55 12 82 21 82 31 0 34 -77 310 -88 315 -4 2
-68 -15 -142 -39z"/>
<path fill="#350030" d="M14448 5018 c-65 -104 -70 -115 -70 -163 0 -48 19 -90 54 -121 12
-12 106 -70 208 -129 102 -59 205 -120 230 -135 59 -36 299 -177 475 -279 77
-45 150 -84 163 -88 33 -8 85 5 122 30 31 21 139 178 140 204 0 11 -53 46
-170 111 -25 14 -103 60 -175 102 -123 73 -233 138 -645 380 -96 56 -196 116
-221 131 -25 16 -50 29 -56 29 -5 0 -30 -33 -55 -72z"/>
<path fill="#b96646" d="M31900 4619 c-67 -12 -120 -29 -120 -37 0 -5 21 -30 48 -58 168 -174
310 -408 368 -603 6 -19 55 27 94 89 63 99 78 270 31 375 -53 119 -160 209
-279 234 -60 12 -78 12 -142 0z"/>
<path fill="#b96646" d="M31625 4485 c-57 -55 -88 -111 -100 -176 -6 -31 -3 -38 19 -52 71
-47 218 -270 251 -382 11 -37 16 -41 66 -54 63 -16 162 -4 235 29 l43 19 -18
53 c-48 138 -143 309 -234 423 -60 75 -180 195 -194 195 -7 0 -38 -25 -68 -55z"/>
<path fill="#350030" d="M31434 4162 c-28 -23 -48 -38 -299 -221 -121 -88 -271 -197 -332
-243 -62 -46 -132 -97 -155 -114 -24 -17 -104 -75 -178 -130 -74 -55 -158
-117 -186 -137 -80 -57 -79 -57 -45 -124 40 -78 97 -144 118 -136 9 4 59 31
111 60 51 29 95 53 97 53 2 0 30 15 62 33 74 43 442 248 583 325 25 13 59 32
75 42 17 9 62 34 100 55 84 45 135 73 238 133 87 50 85 41 37 148 -41 92 -174
275 -198 274 -4 -1 -16 -8 -28 -18z"/>
<path fill="#b96646" d="M10751 3785 c-36 -90 -105 -155 -165 -155 -41 0 -31 -26 18 -44 53
-20 122 -87 137 -133 12 -39 29 -43 29 -9 0 40 71 120 129 145 53 22 64 38 34
47 -86 27 -134 72 -160 149 l-11 30 -11 -30z"/>
<path fill="#350030" d="M4783 3517 c-128 -62 -233 -116 -233 -121 0 -5 19 -30 43 -55 23 -26
101 -114 172 -196 72 -82 140 -159 153 -172 26 -28 27 -33 6 -33 -30 0 -106
-44 -130 -76 -13 -17 -30 -50 -39 -73 -13 -38 -13 -46 1 -79 33 -79 100 -120
178 -108 89 15 163 99 173 198 6 66 -2 78 -171 271 -66 76 -121 142 -121 148
0 8 297 157 316 159 7 0 219 -236 219 -245 0 -3 -9 -5 -20 -5 -61 0 -151 -80
-170 -151 -10 -37 -9 -47 12 -88 32 -62 77 -91 140 -91 64 0 111 22 152 74 65
79 71 159 17 232 -23 32 -213 249 -344 394 -18 19 -49 56 -71 83 -21 26 -41
47 -45 47 -3 -1 -111 -51 -238 -113z m252 -27 c18 -20 16 -21 -146 -100 -148
-71 -165 -78 -176 -63 -7 9 -13 19 -13 23 0 4 71 40 316 160 0 0 9 -9 19 -20z"/>
<path fill="#350030" d="M2335 2933 c-25 -65 -78 -121 -123 -129 -49 -9 -66 -22 -51 -40 6 -8
18 -14 25 -14 44 0 136 -88 149 -142 11 -44 40 -36 54 15 7 23 25 55 39 70 29
31 92 67 117 67 8 0 15 9 15 20 0 14 -11 22 -42 31 -54 14 -113 74 -128 129
-14 53 -33 51 -55 -7z"/>
</g>
</svg>
