<?xml version="1.0" standalone="no"?>
<!DOCTYPE svg PUBLIC "-//W3C//DTD SVG 20010904//EN"
 "http://www.w3.org/TR/2001/REC-SVG-20010904/DTD/svg10.dtd">
<svg version="1.0" xmlns="http://www.w3.org/2000/svg"
 width="480.000000pt" height="480.000000pt" viewBox="0 0 480.000000 480.000000"
 preserveAspectRatio="xMidYMid meet">

<g transform="translate(0.000000,480.000000) scale(0.100000,-0.100000)"
stroke="none">
<path fill="#350030" d="M3650 4363 c-12 -15 -41 -49 -66 -75 l-46 -49 -19 26 c-27 33 -63 33
-85 -1 -16 -24 -16 -27 3 -52 12 -17 31 -28 50 -30 25 -3 39 7 96 68 51 54 69
67 73 55 12 -31 -5 -90 -33 -113 l-28 -24 25 7 c45 12 80 60 80 109 0 54 -10
106 -21 106 -4 0 -17 -12 -29 -27z"/>
<path fill="#b96646" d="M1040 4210 c0 -20 76 -84 159 -134 107 -64 236 -118 296 -124 l50 -4
-30 32 c-59 65 -245 173 -365 213 -75 25 -110 30 -110 17z"/>
<path fill="#b96646" d="M1007 4156 c-16 -42 242 -204 407 -255 81 -25 92 -26 100 -6 4 10 -6
17 -37 25 -123 32 -307 126 -406 209 -54 46 -57 47 -64 27z"/>
<path fill="#350030" d="M949 4057 c-18 -35 -29 -72 -26 -81 26 -67 431 -276 490 -253 15 5
83 125 75 132 -11 8 -68 13 -68 5 0 -6 -7 -10 -15 -10 -9 0 -12 6 -9 15 4 8 1
15 -6 15 -6 0 -45 16 -86 35 -61 28 -76 31 -81 20 -8 -22 -26 -18 -20 4 4 16
-11 30 -73 69 -57 36 -81 47 -89 39 -8 -8 -11 -5 -11 9 0 11 -11 31 -24 44
l-25 23 -32 -66z"/>
<path fill="#b96646" d="M896 3951 c-12 -19 13 -51 76 -97 123 -90 342 -190 399 -182 37 5 21
22 -34 36 -108 27 -320 144 -398 219 -23 21 -39 31 -43 24z"/>
<path fill="#b96646" d="M627 3033 c-12 -11 -7 -56 13 -113 18 -54 18 -56 -2 -115 -17 -50
-18 -66 -8 -97 17 -59 66 -83 132 -65 25 7 28 4 34 -27 7 -41 -4 -67 -18 -42
-10 17 -43 22 -52 7 -10 -16 6 -41 26 -41 37 0 58 19 58 53 0 18 -4 38 -9 46
-7 10 -3 23 10 39 26 34 24 68 -7 99 -19 19 -33 24 -55 21 -39 -6 -67 29 -50
61 36 66 -28 219 -72 174z m51 -45 c14 -14 16 -77 3 -97 -16 -25 -37 36 -33
92 2 20 13 22 30 5z m22 -188 c8 -15 7 -26 -6 -45 -14 -21 -15 -31 -6 -50 7
-14 17 -25 23 -25 8 0 8 4 -1 15 -12 14 -5 55 10 55 13 0 51 -72 46 -86 -3 -9
-21 -14 -45 -14 -30 0 -44 6 -55 22 -21 29 -20 83 1 119 21 34 20 34 33 9z
m92 -54 c11 -16 10 -54 -1 -60 -10 -6 -51 53 -51 73 0 15 41 4 52 -13z"/>
<path fill="#b96646"  d="M3744 2924 c3 -11 8 -32 12 -49 4 -16 16 -36 26 -45 12 -10 36 -84
73 -226 64 -248 65 -250 100 -293 40 -47 94 -71 160 -71 150 0 238 109 217
268 l-7 54 -118 69 c-76 44 -119 64 -122 56 -14 -46 -15 -81 -4 -158 15 -102
7 -122 -45 -117 -33 3 -48 24 -61 86 -6 28 -4 32 14 32 34 0 22 35 -14 41 -25
5 -34 49 -11 49 9 0 16 8 16 20 0 15 -7 20 -25 20 -20 0 -25 5 -25 25 0 16 6
25 15 25 8 0 15 9 15 20 0 14 -7 20 -24 20 -22 0 -36 16 -36 41 0 5 9 9 20 9
22 0 25 7 11 29 -5 7 -15 11 -22 9 -7 -2 -23 9 -34 25 -26 39 -62 64 -103 72
-30 6 -33 5 -28 -11z"/>
<path fill="#350030" d="M3640 2912 c-25 -8 -46 -16 -48 -17 -2 -2 2 -22 8 -45 8 -28 16 -40
25 -36 7 2 30 8 50 12 37 7 37 7 31 48 -4 22 -10 44 -14 47 -4 4 -27 0 -52 -9z"/>
<path fill="#350030" d="M4083 2825 c-12 -25 -14 -41 -7 -52 5 -8 78 -56 162 -105 166 -98
184 -102 214 -49 l16 30 -176 103 c-96 57 -179 104 -184 106 -4 2 -15 -13 -25
-33z"/>
<path fill="#b96646" d="M3547 2019 c-3 -11 -16 -23 -29 -28 -16 -7 -18 -10 -6 -10 9 -1 23
-10 31 -21 12 -18 15 -19 21 -5 3 8 14 19 23 23 16 6 15 10 -9 33 -24 24 -27
25 -31 8z"/>
<path fill="#350030" d="M532 1890 l-64 -30 56 -62 56 -62 -26 -21 c-52 -41 -4 -107 51 -71
25 17 35 68 16 81 -5 3 -24 23 -41 45 l-31 40 46 22 47 23 28 -35 28 -34 -22
-11 c-42 -21 -28 -85 20 -85 24 0 54 33 54 60 0 17 -127 164 -144 167 -6 1
-40 -11 -74 -27z m78 -8 c0 -12 -78 -47 -86 -39 -3 3 11 15 33 26 42 22 53 25
53 13z"/>
<path fill="#350030" d="M1311 1399 c-8 -19 -26 -36 -42 -43 -30 -11 -39 -26 -15 -26 8 0 28
-16 46 -36 17 -20 32 -35 34 -33 1 2 7 16 14 31 6 16 22 30 37 34 33 8 32 20
-5 39 -16 8 -33 27 -36 40 -8 33 -16 31 -33 -6z"/>
<path fill="#b96646" d="M3271 1233 l-23 -5 31 -32 c17 -18 46 -60 65 -95 l33 -63 17 23 c21
30 21 98 0 128 -15 21 -73 53 -91 50 -4 -1 -19 -4 -32 -6z"/>
<path fill="#b96646" d="M3208 1193 c-29 -34 -28 -42 5 -90 19 -26 38 -58 41 -70 6 -18 15
-23 39 -23 53 0 61 11 42 56 -17 42 -91 144 -104 144 -4 0 -15 -8 -23 -17z"/>
<path fill="#350030" d="M2985 984 c-93 -69 -171 -131 -173 -138 -2 -7 5 -22 15 -34 l18 -22
193 107 c105 58 192 109 192 113 0 12 -60 100 -67 99 -5 0 -84 -57 -178 -125z"/>
<path fill="#b96646" d="M640 773 c-12 -15 -41 -49 -66 -75 l-46 -49 -19 26 c-27 33 -63 33
-85 -1 -16 -24 -16 -27 3 -52 12 -17 31 -28 50 -30 25 -3 39 7 96 68 51 54 69
67 73 55 12 -31 -5 -90 -33 -113 l-28 -24 25 7 c45 12 80 60 80 109 0 54 -10
106 -21 106 -4 0 -17 -12 -29 -27z"/>
<path fill="#350030" d="M4087 569 c-3 -11 -16 -23 -29 -28 -16 -7 -18 -10 -6 -10 9 -1 23
-10 31 -21 12 -18 15 -19 21 -5 3 8 14 19 23 23 16 6 15 10 -9 33 -24 24 -27
25 -31 8z"/>
</g>
</svg>
