<?xml version="1.0" standalone="no"?>
<!DOCTYPE svg PUBLIC "-//W3C//DTD SVG 20010904//EN"
 "http://www.w3.org/TR/2001/REC-SVG-20010904/DTD/svg10.dtd">
<svg version="1.0" xmlns="http://www.w3.org/2000/svg"
 width="988.000000pt" height="1244.000000pt" viewBox="0 0 988.000000 1244.000000"
 preserveAspectRatio="xMidYMid meet">

<g transform="translate(0.000000,1244.000000) scale(0.100000,-0.100000)"
fill="#000000" stroke="none">
<path d="M4535 12359 c-859 -33 -1545 -308 -2065 -829 -136 -136 -223 -241
-331 -404 -137 -206 -200 -343 -299 -655 -142 -444 -154 -534 -154 -1106 0
-313 5 -488 21 -740 31 -470 36 -663 24 -875 -31 -510 -134 -870 -361 -1265
-85 -148 -249 -398 -464 -704 -315 -448 -472 -693 -571 -891 -387 -771 -414
-1703 -74 -2558 271 -682 760 -1260 1390 -1643 566 -344 1227 -549 2034 -631
201 -20 893 -17 1111 5 456 46 1062 160 1453 272 521 149 1079 391 1451 630
36 23 99 63 140 90 123 78 366 265 500 382 740 651 1214 1580 1405 2754 58
360 83 668 91 1134 20 1077 -131 2127 -443 3080 -61 187 -252 690 -345 910
-290 687 -706 1322 -1173 1791 -707 710 -1542 1113 -2548 1229 -112 13 -577
39 -597 33 -3 -1 -91 -4 -195 -9z"/>
</g>
</svg>
